<svg width="23" height="22" viewBox="0 0 23 22" fill="none" xmlns="http://www.w3.org/2000/svg">
<path d="M11.277 5.63805C8.09699 5.63805 5.53199 8.03205 5.53199 11.0001C5.53199 13.9681 8.09699 16.3621 11.277 16.3621C14.457 16.3621 17.022 13.9681 17.022 11.0001C17.022 8.03205 14.457 5.63805 11.277 5.63805ZM11.277 14.4861C9.22199 14.4861 7.54199 12.9227 7.54199 11.0001C7.54199 9.07738 9.21699 7.51405 11.277 7.51405C13.337 7.51405 15.012 9.07738 15.012 11.0001C15.012 12.9227 13.332 14.4861 11.277 14.4861ZM18.597 5.41872C18.597 6.11405 17.997 6.66938 17.257 6.66938C16.512 6.66938 15.917 6.10938 15.917 5.41872C15.917 4.72805 16.517 4.16805 17.257 4.16805C17.997 4.16805 18.597 4.72805 18.597 5.41872ZM22.402 6.68805C22.317 5.01272 21.907 3.52871 20.592 2.30605C19.282 1.08338 17.692 0.700713 15.897 0.616713C14.047 0.518713 8.50199 0.518713 6.65199 0.616713C4.86199 0.696046 3.27199 1.07871 1.95699 2.30138C0.641987 3.52405 0.236987 5.00805 0.146987 6.68338C0.0419873 8.41005 0.0419873 13.5854 0.146987 15.3121C0.231987 16.9874 0.641987 18.4714 1.95699 19.6941C3.27199 20.9167 4.85699 21.2994 6.65199 21.3834C8.50199 21.4814 14.047 21.4814 15.897 21.3834C17.692 21.3041 19.282 20.9214 20.592 19.6941C21.902 18.4714 22.312 16.9874 22.402 15.3121C22.507 13.5854 22.507 8.41472 22.402 6.68805ZM20.012 17.1647C19.622 18.0794 18.867 18.7841 17.882 19.1527C16.407 19.6987 12.907 19.5727 11.277 19.5727C9.64699 19.5727 6.14199 19.6941 4.67199 19.1527C3.69199 18.7887 2.93699 18.0841 2.54199 17.1647C1.95699 15.7881 2.09199 12.5214 2.09199 11.0001C2.09199 9.47872 1.96199 6.20738 2.54199 4.83538C2.93199 3.92071 3.68699 3.21605 4.67199 2.84738C6.14699 2.30138 9.64699 2.42738 11.277 2.42738C12.907 2.42738 16.412 2.30605 17.882 2.84738C18.862 3.21138 19.617 3.91605 20.012 4.83538C20.597 6.21205 20.462 9.47872 20.462 11.0001C20.462 12.5214 20.597 15.7927 20.012 17.1647Z" fill="white"/>
</svg>
