<svg width="26" height="21" viewBox="0 0 26 21" fill="none" xmlns="http://www.w3.org/2000/svg">
<path d="M23.0201 5.54338C23.035 5.75338 23.035 5.96805 23.035 6.17805C23.035 12.6507 17.755 20.1127 8.10505 20.1127C5.13005 20.1127 2.37005 19.31 0.0500488 17.9147C0.470049 17.9614 0.880049 17.9754 1.31505 17.9754C3.77005 17.9754 6.02505 17.2007 7.83005 15.8847C5.52505 15.838 3.59005 14.4287 2.92505 12.4874C3.25005 12.534 3.57505 12.562 3.91505 12.562C4.38505 12.562 4.85505 12.5014 5.29505 12.394C2.89005 11.9414 1.09005 9.96738 1.09005 7.58738V7.52671C1.79005 7.89071 2.60005 8.11938 3.46005 8.14738C2.04505 7.27005 1.12005 5.76738 1.12005 4.06871C1.12005 3.15871 1.38005 2.32338 1.83505 1.59538C4.42005 4.57271 8.30005 6.51405 12.655 6.72871C12.575 6.36471 12.525 5.98671 12.525 5.60871C12.525 2.91138 14.865 0.713379 17.77 0.713379C19.28 0.713379 20.6451 1.30605 21.605 2.25805C22.79 2.04805 23.93 1.63738 24.935 1.07738C24.545 2.21605 23.715 3.16805 22.63 3.77471C23.685 3.66738 24.71 3.39671 25.65 3.01871C24.935 3.98471 24.0401 4.84805 23.0201 5.54338Z" fill="white"/>
</svg>
